/vscmnt/brussel_pixiu_data/_data_brussel/112/vsc11236/PredSimResults/SUBJ10opt3D/expIG/worker_05.mot
version=1
nRows=11
nColumns=50
inDegrees=yes
endheader
                time	         pelvis_tilt	         pelvis_list	     pelvis_rotation	           pelvis_tx	           pelvis_ty	           pelvis_tz	       hip_flexion_r	     hip_adduction_r	      hip_rotation_r	        knee_angle_r	       ankle_angle_r	         mtp_angle_r	       hip_flexion_l	     hip_adduction_l	      hip_rotation_l	        knee_angle_l	       ankle_angle_l	         mtp_angle_l	    lumbar_extension	      lumbar_bending	     lumbar_rotation	 ercspn_r/activation	 intobl_r/activation	 extobl_r/activation	    abd_r/activation	    add_r/activation	hamstrings_r/activation	bifemsh_r/activation	glut_max_r/activation	iliopsoas_r/activation	rect_fem_r/activation	  vasti_r/activation	gastroc_r/activation	 soleus_r/activation	tib_ant_r/activation	 ercspn_l/activation	 intobl_l/activation	 extobl_l/activation	    abd_l/activation	    add_l/activation	hamstrings_l/activation	bifemsh_l/activation	glut_max_l/activation	iliopsoas_l/activation	rect_fem_l/activation	  vasti_l/activation	gastroc_l/activation	 soleus_l/activation	tib_ant_l/activation	
          1.84131949	         -3.08874247	          1.24418393	         -7.72436890	          1.84131949	          0.83048964	          0.01474695	        -14.71767294	         -1.34989552	         -1.00152135	         -6.39405576	          9.76028756	         23.29172961	         28.95128980	         -1.47680280	         -5.61148100	         -8.47308542	          2.36902996	          0.25008976	         -5.80509220	          1.15225284	          5.37632261	          0.05949432	          0.00999999	          0.00999999	          0.06349125	          0.00999999	          0.01000000	          0.19400136	          0.00999999	          0.28734802	          0.00999999	          0.00999999	          0.27566775	          0.24333797	          0.02268558	          0.11307448	          0.18221043	          0.00999999	          0.00999999	          0.13063142	          0.07983629	          0.18524270	          0.02088797	          0.08621885	          0.00999999	          0.00999999	          0.00999999	          0.00999999	          0.25834753	
          1.85359496	         -3.14349171	          1.16852212	         -7.75952637	          1.85575636	          0.82912831	          0.01423606	        -14.87693641	         -1.42131519	         -1.40375710	         -7.83440390	          9.24480416	         24.82657479	         28.72649355	         -1.36106779	         -5.48162406	         -9.63038934	          2.20523426	          0.24809424	         -5.59128429	          0.75493706	          5.71696118	          0.08959647	          0.00999999	          0.00999999	          0.05270772	          0.00999999	          0.01000032	          0.16105163	          0.01204590	          0.23854404	          0.00999999	          0.00999999	          0.25209772	          0.23699025	          0.01883260	          0.09924735	          0.17078464	          0.00999999	          0.00999999	          0.16322851	          0.07075209	          0.16591844	          0.04012443	          0.07157521	          0.00999999	          0.00999999	          0.01451038	          0.01204590	          0.27417407	
          1.86587042	         -3.18899611	          1.10438863	         -7.74970487	          1.87052329	          0.82795655	          0.01363496	        -14.95809086	         -1.51384292	         -1.83510029	         -9.45665454	          8.58889535	         26.35552030	         28.34771767	         -1.24518402	         -5.29059479	        -10.68102041	          1.91647525	          0.24371435	         -5.35379530	          0.32870165	          6.04274173	          0.09823122	          0.00999999	          0.00999999	          0.04375570	          0.00999999	          0.00999999	          0.13369818	          0.00999999	          0.19802907	          0.00999999	          0.00999999	          0.22052736	          0.22518663	          0.01563402	          0.09374181	          0.14177814	          0.00999999	          0.02114752	          0.13550533	          0.06562825	          0.13773840	          0.06844062	          0.05941868	          0.00999999	          0.00999999	          0.01204590	          0.00999999	          0.32942637	
          1.87814588	         -3.22582033	          1.03906546	         -7.68780613	          1.88544625	          0.82709045	          0.01291495	        -14.89863700	         -1.61502194	         -2.29723578	        -11.34607314	          7.77831659	         27.83237948	         27.90296749	         -1.13444129	         -5.18352036	        -11.60575535	          1.50608349	          0.23487753	         -5.11335575	         -0.10481995	          6.34182993	          0.12109219	          0.00999999	          0.00999999	          0.03632411	          0.00999999	          0.00999999	          0.11099051	          0.00999999	          0.16439526	          0.00999999	          0.00999999	          0.18307239	          0.21125779	          0.01297869	          0.10521379	          0.11769815	          0.00999999	          0.06283384	          0.17626179	          0.05859095	          0.11434453	          0.07371309	          0.04932684	          0.00999999	          0.01626767	          0.00999999	          0.00999999	          0.37432496	
          1.89042135	         -3.25314957	          0.97172215	         -7.57823680	          1.90040713	          0.82663221	          0.01208873	        -14.65221639	         -1.72744234	         -2.79210078	        -13.56156661	          6.80656723	         29.16879155	         27.44657418	         -1.03083547	         -5.16984738	        -12.52662933	          1.12514833	          0.22467066	         -4.87852132	         -0.54144518	          6.60827385	          0.13740083	          0.00999999	          0.00999999	          0.03015472	          0.00999999	          0.01271772	          0.09213958	          0.00999999	          0.13647392	          0.00999999	          0.00999999	          0.15197887	          0.19366445	          0.01077436	          0.10224895	          0.09770797	          0.00999999	          0.09217285	          0.18943950	          0.06073812	          0.09492394	          0.06386178	          0.04094904	          0.00999999	          0.03239625	          0.00999999	          0.00999999	          0.40006607	
          1.90269681	         -3.27180375	          0.91014011	         -7.43053864	          1.91528425	          0.82666986	          0.01117351	        -14.17258897	         -1.86511607	         -3.32023560	        -16.15459061	          5.68549384	         30.22506066	         27.00089201	         -0.92296866	         -5.20265483	        -13.48716218	          0.89656492	          0.21160337	         -4.65712497	         -0.98643486	          6.84436091	          0.15296046	          0.00999999	          0.00999999	          0.02503316	          0.05833508	          0.02999365	          0.07649034	          0.00999999	          0.11329482	          0.00999999	          0.00999999	          0.12616636	          0.16974386	          0.00999999	          0.09560918	          0.08111298	          0.00999999	          0.10934201	          0.19453489	          0.06341454	          0.07880180	          0.06010829	          0.03399414	          0.00999999	          0.06380406	          0.00999999	          0.00999999	          0.40569673	
          1.91497227	         -3.28368547	          0.85210218	         -7.24928587	          1.92996361	          0.82729635	          0.01019139	        -13.41632631	         -2.03061521	         -3.90367513	        -19.16725420	          4.42662348	         30.81507460	         26.53415105	         -0.80419759	         -5.23741376	        -14.42923953	          0.91002523	          0.19967520	         -4.45809980	         -1.43502497	          7.05100246	          0.16146414	          0.00999999	          0.00999999	          0.02078146	          0.11907595	          0.03723766	          0.06349901	          0.00999999	          0.09405251	          0.00999999	          0.00999999	          0.10473792	          0.14091410	          0.00999999	          0.08977823	          0.06733653	          0.00999999	          0.11719279	          0.20482208	          0.06655978	          0.06541789	          0.05972822	          0.02822048	          0.00999999	          0.08350741	          0.00999999	          0.00999999	          0.38661244	
          1.92724774	         -3.29042888	          0.78752531	         -7.03633557	          1.94437006	          0.82853563	          0.00916789	        -12.35544065	         -2.22367356	         -4.56288972	        -22.62569672	          3.05261354	         30.74277920	         26.00291071	         -0.67844939	         -5.24609999	        -15.27157178	          1.18853751	          0.20602804	         -4.28801407	         -1.87554148	          7.22716486	          0.16528709	          0.00999999	          0.00999999	          0.01725188	          0.18084689	          0.04046655	          0.05271416	          0.00999999	          0.07807838	          0.00999999	          0.00999999	          0.08694894	          0.11698086	          0.00999999	          0.08459166	          0.05589991	          0.00999999	          0.11893617	          0.20837505	          0.07087960	          0.05430713	          0.05947699	          0.02342744	          0.00999999	          0.09877309	          0.00999999	          0.00999999	          0.34177023	
          1.93952320	         -3.29347287	          0.70349068	         -6.79137687	          1.95845929	          0.83035545	          0.00812878	        -10.98346143	         -2.44406075	         -5.28410445	        -26.49707645	          1.46293525	         30.00894809	         25.36211376	         -0.55340785	         -5.20395634	        -15.91852768	          1.68420085	          0.26004295	         -4.15139838	         -2.29456795	          7.36987028	          0.16223067	          0.00999999	          0.00999999	          0.01432177	          0.23734270	          0.04673946	          0.04376105	          0.00999999	          0.06481733	          0.00999999	          0.00999999	          0.07218130	          0.09711251	          0.00999999	          0.07595988	          0.04640571	          0.00999999	          0.11395726	          0.18895427	          0.07515016	          0.04508346	          0.05675052	          0.01944846	          0.00999999	          0.11177348	          0.00999999	          0.00999999	          0.29371187	
          1.95179866	         -3.29412098	          0.58533184	         -6.51233890	          1.97219580	          0.83267472	          0.00709870	         -9.32257152	         -2.68518428	         -6.03276489	        -30.67525464	         -0.47886542	         28.68452743	         24.58220723	         -0.44262282	         -5.09661905	        -16.28924094	          2.25733632	          0.36331131	         -4.05415784	         -2.67782251	          7.47509143	          0.15373769	          0.00999999	          0.00999999	          0.01188932	          0.25860844	          0.05729920	          0.03632855	          0.00999999	          0.05380858	          0.00999999	          0.00999999	          0.05992183	          0.08061865	          0.00999999	          0.06668992	          0.03852404	          0.00999999	          0.10860782	          0.15686176	          0.07781064	          0.03742636	          0.04711186	          0.01614528	          0.00999999	          0.11600755	          0.00999999	          0.00999999	          0.25637231	
          1.96407413	         -3.29280835	          0.42287418	         -6.19896521	          1.98555641	          0.83535742	          0.00609181	         -7.42103624	         -2.93870952	         -6.75661391	        -35.01324428	         -2.83274490	         26.80443783	         23.67416190	         -0.36125360	         -4.92091231	        -16.38557008	          2.81115908	          0.49625058	         -4.00219323	         -3.01396603	          7.53982494	          0.16123201	          0.02537883	          0.00999999	          0.00999999	          0.21468567	          0.08960257	          0.03166877	          0.01026704	          0.04466958	          0.00999999	          0.00999999	          0.04974454	          0.06692616	          0.01855607	          0.05641824	          0.03198101	          0.00999999	          0.10389713	          0.13021993	          0.08043174	          0.03106976	          0.03911025	          0.01340312	          0.00999999	          0.10966432	          0.00999999	          0.00999999	          0.22686324	
